<?xml version="1.0" encoding="UTF-8"?>
<svg xmlns="http://www.w3.org/2000/svg" width="22.0" height="22.0" viewBox="0 0 18.0 18.0">
  <g>
    <path d="M9,0L9,0A9,9 0,0 1,18 9L18,9A9,9 0,0 1,9 18L9,18A9,9 0,0 1,0 9L0,9A9,9 0,0 1,9 0z" fill="#26C2A3" />
    <path d="M7.699,15.002H5.729C5.548,15.002 5.404,14.84 5.404,14.659V12.761C5.404,12.617 5.476,12.436 5.729,12.436H7.699C7.861,12.436 8.06,12.49 8.06,12.761V14.659C8.06,14.804 7.861,15.002 7.699,15.002ZM12.289,15.002H10.319C10.157,15.002 9.958,14.804 9.958,14.659V12.761C9.958,12.49 10.157,12.436 10.319,12.436H12.289C12.542,12.436 12.614,12.617 12.614,12.761V14.659C12.614,14.84 12.47,15.002 12.289,15.002ZM7.608,11.044H5.819C5.62,11.044 5.476,10.936 5.476,10.719L5.331,3.942C5.331,3.779 5.404,3.617 5.657,3.617H7.771C7.97,3.617 8.114,3.743 8.114,3.942L7.916,10.719C7.916,10.882 7.771,11.044 7.608,11.044ZM12.181,11.044H10.392C10.229,11.044 10.084,10.882 10.084,10.719L9.886,3.942C9.886,3.743 10.03,3.617 10.229,3.617H12.343C12.596,3.617 12.669,3.779 12.669,3.942L12.524,10.719C12.524,10.936 12.38,11.044 12.181,11.044Z" fill="#109888" />
    <path d="M7.699,14.44H5.729C5.548,14.44 5.404,14.277 5.404,14.096V12.199C5.404,12.054 5.476,11.873 5.729,11.873H7.699C7.861,11.873 8.06,11.928 8.06,12.199V14.096C8.06,14.241 7.861,14.44 7.699,14.44ZM12.289,14.44H10.319C10.157,14.44 9.958,14.241 9.958,14.096V12.199C9.958,11.928 10.157,11.873 10.319,11.873H12.289C12.542,11.873 12.614,12.054 12.614,12.199V14.096C12.614,14.277 12.47,14.44 12.289,14.44ZM7.608,10.482H5.819C5.62,10.482 5.476,10.373 5.476,10.157L5.331,3.38C5.331,3.217 5.404,3.054 5.657,3.054H7.771C7.97,3.054 8.114,3.181 8.114,3.38L7.916,10.157C7.916,10.319 7.771,10.482 7.608,10.482ZM12.181,10.482H10.392C10.229,10.482 10.084,10.319 10.084,10.157L9.886,3.38C9.886,3.181 10.03,3.054 10.229,3.054H12.343C12.596,3.054 12.669,3.217 12.669,3.38L12.524,10.157C12.524,10.373 12.38,10.482 12.181,10.482Z" fill="#FFFFFF" />
  </g>
</svg>
