<?xml version="1.0" encoding="UTF-8"?>
<svg xmlns="http://www.w3.org/2000/svg" width="825.0" height="825.0" viewBox="0 0 600.0 600.0">
  <g>
    <path d="M221.26,157.54C221.54,169.21 218.85,189.27 213.01,215.63C265.88,280.9 271.83,306.38 276.91,236.95C283.66,144.73 249.13,125.94 241.68,123.14C231.17,119.19 220.42,120.99 221.26,157.54Z" fill="#58CC02" />
    <path d="M85.12,441.54C85.12,480.45 125.64,512 175.62,512C225.59,512 266.11,480.45 266.11,441.54C266.11,402.63 225.59,371.08 175.62,371.08C125.64,371.08 85.12,402.63 85.12,441.54Z" fill="#AFAFAF" fill-opacity="0.3" />
    <path d="M114,488.5L120.92,472" stroke="#F49000" stroke-width="28.0" stroke-linecap="round" />
    <path d="M249.59,403L236,397" stroke="#F49000" stroke-width="28.0" stroke-linecap="round" />
    <path d="M116.73,432.5C56.9,411.34 60.5,349.5 68,330C17,271 39,224 83.61,211.5C90.65,209.52 116.73,202 116.73,202C116.73,160.5 208.24,152.82 248.5,206.5C278.5,246.5 277.11,295.9 271,330C256.5,411 193.32,459.59 116.73,432.5Z" fill="#58CC02" />
    <path d="M205.53,175.15C221.79,181.15 237.17,191.4 248.5,206.5C256.14,216.68 261.74,227.48 265.75,238.47C265.83,242.78 265.62,247.29 265.11,252C258.82,309.5 214.61,291 208.11,279L195.6,281C199,334.5 150.01,339.67 126.5,317.5L105,231C136.5,227.5 148,225 163.5,215C173.28,208.69 177.49,192.22 179.26,180.93C180.26,174.57 185.97,169.43 191.23,173.13C194.61,175.51 197.52,178.93 199.5,183C202.15,180.57 204.14,177.65 205.53,175.15Z" fill="#89E219" />
    <path d="M231.5,220L200,267L187.61,247C196,227 199.11,195.5 199.11,195.5C215.03,195.87 231.5,220 231.5,220Z" fill="#FFFFFF" />
    <path d="M173,253.5L184,276.5L133.5,291.5L113,252C113,252 155,259.5 173,253.5Z" fill="#FFFFFF" />
    <path d="M90.5,263.5C93.29,274.84 95,295 95,322C160.74,374.29 172.05,397.88 162,329C148.66,237.5 110.87,226.62 103,225.5C91.88,223.92 81.77,228 90.5,263.5Z" fill="#58CC02" />
    <path d="M114.5,228C90.49,218 79.15,230.5 89,262.5C97,288.5 93.5,318 93.5,319.5" stroke="#1DBC03" stroke-width="5.0" stroke-linecap="round" />
    <path d="M209.5,355L191.61,279.5L214,266.5L233,335C238,360 229.95,363.18 209.5,355Z" fill="#B16900" />
    <path d="M188.5,282C188.5,282 201.46,333.5 207.5,354.5C211.67,369 234.5,370 235.5,346C236.02,333.61 229.45,312.11 220.67,283.35C219.17,278.44 217.6,273.32 216,268L210.24,270.93L213.5,270L231.38,335.86C232.86,341.31 229.93,346.99 224.62,348.93C218.64,351.12 212.06,347.72 210.38,341.58L193.45,279.48L188.5,282Z" fill="#F49000" />
    <path d="M209.36,337.83L204.37,319.52C210.46,312.74 219.76,309.48 228.97,311.25L229.37,311.33C232.82,311.99 236.23,310.02 237.39,306.7C238.66,303.05 242.65,301.12 246.3,302.39C249.95,303.66 251.88,307.65 250.61,311.3C247.17,321.19 237,327.05 226.72,325.08L226.33,325C221.12,324 215.84,326.43 213.22,331.04L209.36,337.83Z" fill="#FFB8D1" />
    <path d="M216.2,279.94C217.61,276.8 219.73,272.12 221.47,268.36C222.95,265.16 222.38,261.11 219.34,259.34C212.27,255.25 211.16,262.97 211.93,270.45L213.5,270L216.2,279.94Z" fill="#FFC200" />
    <path d="M213.44,246.95L203.84,261.28C203.59,260.91 203.36,260.52 203.17,260.1L203.17,260.1L203.17,260.1L203.17,260.09L203.15,260.05L203.07,259.89C203.01,259.74 202.91,259.53 202.79,259.26C202.54,258.73 202.19,258 201.8,257.19C200.99,255.49 200.12,253.78 199.57,252.86C197.44,249.31 198.59,244.7 202.14,242.57C205.69,240.44 210.3,241.59 212.43,245.14C212.75,245.68 213.1,246.3 213.44,246.95Z" fill="#4B4B4B" />
    <path d="M189,285C181.89,265.46 200.83,251.04 218.81,258.93C222.16,260.4 221.71,264.78 218.31,266.11C216.06,266.99 214.07,267.75 212.61,268.5C197.8,276.12 189,285 189,285Z" fill="#FFC200" />
    <path d="M212.5,280.5C214.78,275.56 216.19,272.07 217.62,267.38C218.15,265.64 216.24,264.23 214.71,265.21C202.94,272.74 202.41,273.99 197,278.5C198.24,282.77 211.62,282.4 212.5,280.5Z" fill="#B16900" />
    <path d="M197.44,265.85C199.04,263.93 202.22,262.16 205.37,262.44" stroke="#FFDE00" stroke-width="5.0" stroke-linecap="round" />
    <path d="M215.11,384C207.53,389.68 199.95,392.23 189.39,395.03C188.62,395.23 188.4,396.21 189.02,396.69C205.93,409.82 220.4,380.03 215.11,384Z" fill="#89E219" />
    <path d="M246.61,367.5C239.49,373.68 236.42,376.24 226.71,379.48C225.99,379.72 225.78,380.64 226.38,381.1C239.42,391.15 251.59,363.19 246.61,367.5Z" fill="#89E219" />
    <path d="M231.61,389C225.46,395.15 221.99,396.83 213.15,399.11C212.44,399.29 212.16,400.16 212.68,400.68C224.8,412.84 236.28,384.33 231.61,389Z" fill="#89E219" />
    <path d="M470.27,192.56C464.11,180.94 451.1,174.69 438.18,177.14L267.82,209.46C257.36,211.45 249.43,218.52 245.72,227.41L242.29,234.54C237.99,242.47 237.23,252.31 241.39,261.38L317.07,426.15C323.09,439.27 337.59,446.24 351.6,442.74L527.52,398.82C537.48,396.34 544.81,389.28 548.2,380.64L551.03,374.74C555.92,366.21 556.61,355.35 551.52,345.74L470.27,192.56Z" fill="#D2D2D2" />
    <path d="M442.06,183.02C450.68,181.39 459.35,185.55 463.46,193.3L544.89,346.83C550.98,358.32 544.67,372.46 532.06,375.61L355.74,419.63C346.4,421.96 336.73,417.32 332.72,408.57L256.87,243.42C251.45,231.61 258.55,217.84 271.32,215.42L442.06,183.02Z" fill="#FFFFFF" />
    <path d="M323.71,258.42L299.32,210.11L351.88,200.14L377.42,248.28L323.71,258.42L347.05,304.64L289.98,315.45L268.57,268.83L323.71,258.42ZM428.56,238.63L402.95,190.45L442.1,183.02C445.55,182.36 449.01,182.64 452.18,183.7L452.25,183.73C456.97,185.33 461.05,188.67 463.5,193.3L482.17,228.5L428.56,238.63ZM531.58,321.68L478.63,332.83L452.98,284.57L506.52,274.42L531.58,321.68ZM347.05,304.64L401.82,294.26L427.95,343.51L372.56,355.18L399.58,408.69L355.73,419.63C354.11,420.04 352.48,420.23 350.87,420.23C343.22,420.21 336.06,415.79 332.75,408.58L313.9,367.53L372.56,355.17L347.05,304.64ZM377.42,248.27L428.55,238.62L452.97,284.56L401.82,294.26L377.42,248.27ZM427.95,343.5L478.62,332.83L504.96,382.38L455.18,394.8L427.95,343.5Z" fill="#F1F1F1" />
    <path d="M496.88,315.44C490.89,320.13 481.21,317.76 475.24,310.14C469.28,302.53 469.29,292.55 475.28,287.87C481.26,283.18 490.94,285.56 496.91,293.17C502.87,300.79 502.86,310.76 496.88,315.44Z" fill="#899EAC" />
    <path d="M481.14,283.27L502.74,310.85L496.83,315.48L475.23,287.9L481.14,283.27Z" fill="#899EAC" />
    <path d="M476.55,291.61C474.52,302.48 482.5,312.67 493.54,313.3L524.98,315.09L482.34,260.65L476.55,291.61Z" fill="#D6E4ED" />
    <path d="M528.98,312.53C521.35,318.51 503.76,312.36 491.84,297.13C479.91,281.9 478.15,263.36 485.79,257.38C493.42,251.4 509.28,258.9 521.21,274.13C533.13,289.36 536.61,306.55 528.98,312.53Z" fill="#B6C8D5" />
    <path d="M489.19,249.59C497.52,243.07 509.55,244.54 516.07,252.86L540.63,284.22C547.15,292.54 545.69,304.57 537.36,311.09C529.04,317.61 517.01,316.15 510.49,307.83L485.93,276.47C479.41,268.14 480.87,256.11 489.19,249.59Z" fill="#B6C8D5" />
    <path d="M508.96,261.09C512.75,258.11 518.24,258.78 521.21,262.58L532.41,276.87C535.38,280.67 534.71,286.15 530.92,289.12C527.12,292.1 521.64,291.43 518.66,287.64L507.47,273.34C504.5,269.55 505.16,264.06 508.96,261.09Z" fill="#D6E4ED" />
    <path d="M542.29,271.77C542.86,272.49 542.73,273.54 542.01,274.11L538.07,277.19C537.34,277.76 536.3,277.63 535.73,276.91L521.99,259.37C521.42,258.64 521.55,257.59 522.27,257.02L526.21,253.94C526.93,253.38 527.98,253.5 528.55,254.23L542.29,271.77Z" fill="#B6C8D5" />
    <path d="M535.62,257.41C536.34,256.84 537.39,256.97 537.96,257.7L541.18,261.81C541.75,262.53 541.62,263.58 540.9,264.15L526.78,275.2C526.06,275.77 525.01,275.64 524.44,274.92L521.22,270.81C520.65,270.08 520.78,269.03 521.5,268.46L535.62,257.41Z" fill="#B6C8D5" />
    <path d="M531.91,260.31C532.64,259.74 533.69,259.87 534.26,260.6L537.48,264.71C538.04,265.43 537.92,266.48 537.19,267.05L523.08,278.11C522.35,278.67 521.3,278.55 520.74,277.82L517.51,273.71C516.95,272.98 517.07,271.93 517.8,271.37L531.91,260.31Z" fill="#899EAC" />
    <path d="M538.59,274.67C539.16,275.39 539.03,276.44 538.3,277.01L534.99,279.6C534.27,280.17 533.22,280.04 532.65,279.32L518.91,261.77C518.35,261.05 518.47,260 519.2,259.43L522.51,256.84C523.23,256.27 524.28,256.4 524.85,257.13L538.59,274.67Z" fill="#899EAC" />
    <path d="M494.19,288.44C493.8,286.35 493.43,284.36 491.09,282.58C486.86,279.34 482.86,282.42 481.24,284.49C479.63,286.56 475.93,295.17 482.93,304.1C489.93,313.04 499.17,311.51 501.57,310.44C503.97,309.36 507.91,306.22 505.78,301.33C504.61,298.63 502.77,297.8 500.83,296.92C499.26,296.21 497.69,295.55 496.23,293.68C494.77,291.83 494.5,290.14 494.19,288.44Z" fill="#D6E4ED" />
    <path d="M378.72,388.56C374.64,397.3 362.55,400.3 351.72,395.25C340.89,390.2 335.41,379.01 339.49,370.26C343.58,361.51 355.67,358.51 366.5,363.57C377.33,368.62 382.8,379.81 378.72,388.56Z" fill="#616161" />
    <path d="M374.8,343.33C375.55,342.81 376.58,343.29 376.66,344.2L380.04,381.53C380.13,382.45 379.19,383.11 378.35,382.72L344.2,366.78C343.36,366.39 343.27,365.25 344.02,364.73L374.8,343.33Z" fill="#616161" />
    <path d="M389.35,354.68C385.4,363.16 375.31,366.83 366.83,362.87C358.34,358.92 354.67,348.83 358.63,340.35C362.59,331.86 372.67,328.2 381.16,332.15C389.64,336.11 393.31,346.19 389.35,354.68Z" fill="#616161" />
    <path d="M360.9,357.99C362.38,360.03 364.05,361.58 366.82,362.87C369.6,364.16 372.94,364.38 374.37,364.27" stroke="#3D3D3D" stroke-width="3.96535" stroke-linecap="round" />
    <path d="M378.76,344.82C377.21,348.13 373.27,349.57 369.95,348.02C366.63,346.47 365.2,342.53 366.75,339.21C368.29,335.9 372.23,334.46 375.55,336.01C378.87,337.56 380.3,341.5 378.76,344.82Z" fill="#888888" />
    <path d="M370.1,142.77C376.64,149.87 374.82,162.19 366.03,170.29C357.24,178.4 344.82,179.21 338.27,172.11C331.73,165.02 333.55,152.69 342.33,144.59C351.12,136.49 363.55,135.67 370.1,142.77Z" fill="#616161" />
    <path d="M326.76,129.23C326.56,128.34 327.4,127.57 328.27,127.83L364.09,138.88C364.97,139.15 365.22,140.27 364.55,140.89L336.84,166.45C336.16,167.07 335.07,166.72 334.87,165.83L326.76,129.23Z" fill="#616161" />
    <path d="M342.79,120.07C349.13,126.96 348.7,137.68 341.82,144.02C334.93,150.37 324.21,149.93 317.86,143.05C311.52,136.17 311.95,125.45 318.84,119.1C325.72,112.76 336.44,113.19 342.79,120.07Z" fill="#616161" />
    <path d="M335.05,147.65C337.49,147.06 339.57,146.1 341.82,144.03C344.06,141.95 345.53,138.94 345.98,137.57" stroke="#3D3D3D" stroke-width="3.96535" stroke-linecap="round" />
    <path d="M329.64,126.14C332.12,128.82 331.95,133.02 329.26,135.5C326.57,137.98 322.38,137.81 319.9,135.12C317.42,132.43 317.59,128.24 320.28,125.75C322.97,123.28 327.16,123.44 329.64,126.14Z" fill="#888888" />
    <path d="M366.61,222.82C363.19,228.26 357.61,230.89 354.14,228.71C350.67,226.53 350.63,220.36 354.05,214.93C357.46,209.5 361.35,209.2 364.82,211.38C368.29,213.56 370.02,217.39 366.61,222.82Z" fill="#888888" />
    <path d="M370.5,227.96L372.01,234.42L400.83,255.01L410.94,245.64C415.31,241.59 417.04,233.32 410.67,226.45C404.31,219.58 401.36,214.46 394.54,212.79C389.91,211.65 372.22,210.53 361.25,210.03C358.46,209.91 356.13,212.1 356.04,214.9C355.89,220.15 359.33,224.83 364.39,226.25L370.5,227.96Z" fill="#888888" />
    <path d="M392.22,203.79L394.39,223.86L376.69,219.38C376.07,212.15 383.05,204.13 389.25,201.72C390.68,201.16 392.06,202.27 392.22,203.79Z" fill="#888888" />
    <path d="M374.61,279.3C368.23,285.21 355.98,282.38 347.26,272.96C338.54,263.55 336.64,251.12 343.02,245.21C349.4,239.29 361.65,242.13 370.37,251.55C379.1,260.96 380.99,273.39 374.61,279.3Z" fill="#616161" />
    <path d="M385.56,238.28L398.49,257.18L374.3,279.59L342.71,245.5L347.41,241.3C349.92,239.05 353.18,237.84 356.55,237.88L385.56,238.28Z" fill="#616161" />
    <path d="M365.6,237.66L366.9,242.5L394.05,261.29L403.04,252.97C406.49,249.76 410.59,241.64 404.59,235.16C398.59,228.69 395.37,223.27 388.59,221.64C384,220.53 367.3,219.08 356.6,218.51C353.77,218.35 351.39,220.55 351.24,223.39C350.96,228.93 354.57,233.93 359.92,235.41L364.65,236.71C365.11,236.84 365.47,237.2 365.6,237.66Z" fill="#616161" />
    <path d="M388.45,212.34L389.92,225.93L377.24,222.72C376.82,217.82 381.27,212.41 385.52,210.38C386.9,209.72 388.29,210.81 388.45,212.34Z" fill="#616161" />
    <path d="M380.94,230.7L378.63,232.83" stroke="#3D3D3D" stroke-width="5.94802" stroke-linecap="round" />
    <path d="M365.33,238L364.73,238L367.17,240.31L368.3,239.06L365.61,237.66C365.64,237.83 365.51,237.99 365.33,238Z" fill="#616161" />
    <path d="M383.4,255.37C380.68,255.11 376.5,254.41 372.56,251.42C368.63,248.43 367.57,244.77 366.81,241.74" stroke="#3D3D3D" stroke-width="3.96535" stroke-linecap="round" />
    <path d="M430.19,151.48C431.37,144.19 430.06,130.19 424.19,121.58C423.51,120.57 422.69,120.15 423.57,118.11C424.45,116.07 426.42,115.79 428.08,116.51L438.2,120.89L442.16,111.76C443.18,109.39 446.34,108.91 448.08,110.85L455.35,119L464.39,114.59C466.57,113.53 469.19,114.66 469.91,116.98L472.91,126.6L483.83,126.32C486.43,126.25 488.24,128.89 487.22,131.26L483.26,140.39L493.39,144.77C495.05,145.49 495.98,147.43 495.17,149.31C494.36,151.18 493.56,150.89 492.36,151.08C482.07,152.7 470.96,161.32 466.46,167.17C453.19,184.41 426.7,172.95 430.19,151.48Z" fill="#3D3D3D" />
    <path d="M425.36,168.28a13.76,17.51 113.4,1 0,32.15 13.91a13.76,17.51 113.4,1 0,-32.15 -13.91z" fill="#3D3D3D" />
    <path d="M428.55,160.92l32.15,13.91l-3.21,7.41l-32.15,-13.91z" fill="#3D3D3D" />
    <path d="M427.96,162.28a13.76,17.51 113.4,1 0,32.15 13.91a13.76,17.51 113.4,1 0,-32.15 -13.91z" fill="#616161" />
    <path d="M435.52,135.59a14.32,21.18 113.4,1 0,38.87 16.82a14.32,21.18 113.4,1 0,-38.87 -16.82z" fill="#888888" />
    <path d="M428.09,162.02C428.09,162.02 431.67,151.69 430.13,141.27C428.7,131.56 425.62,124.91 423.36,120.54C423.07,119.97 423.15,119.29 423.57,118.81C424.14,118.16 425.14,118.1 425.75,118.73C430.59,123.75 437.83,134.02 441.69,145.28L451.83,142.06C454.47,141.22 457.32,142.45 458.52,144.95L463.11,154.55C473.96,149.65 486.41,147.91 493.38,148C494.25,148.01 494.9,148.78 494.81,149.64C494.75,150.27 494.3,150.8 493.69,150.97C488.96,152.32 482.01,154.63 473.95,160.23C465.3,166.24 460.22,175.92 460.22,175.92L428.09,162.02Z" fill="#616161" />
    <path d="M439.31,165.49C439.6,164.83 440.21,164.38 440.92,164.3L445.29,163.81C445.99,163.74 446.68,164.04 447.11,164.6L449.74,168.11C450.18,168.69 450.27,169.45 449.98,170.11L447.92,174.88C447.63,175.54 447.02,175.99 446.3,176.07L441.93,176.55C441.23,176.63 440.54,176.33 440.12,175.77L437.48,172.25C437.05,171.68 436.96,170.92 437.25,170.26L439.31,165.49Z" fill="#888888" />
    <path d="M530.36,213.56C520.72,213.08 513.39,203.01 513.98,191.07C514.58,179.13 522.88,169.84 532.53,170.33C542.17,170.81 549.5,180.88 548.9,192.82C548.3,204.76 540,214.04 530.36,213.56Z" fill="#B6C8D5" />
    <path d="M570.78,192.88C571.54,193.38 571.48,194.52 570.67,194.94L537.36,212.14C536.55,212.56 535.59,211.93 535.63,211.02L537.52,173.37C537.57,172.46 538.59,171.94 539.36,172.44L570.78,192.88Z" fill="#B6C8D5" />
    <path d="M565.75,210.64C556.4,210.17 549.2,202.21 549.67,192.86C550.14,183.51 558.1,176.32 567.45,176.78C576.8,177.25 583.99,185.21 583.53,194.56C583.06,203.91 575.1,211.11 565.75,210.64Z" fill="#B6C8D5" />
    <path d="M551.96,185.53C550.63,187.67 549.82,189.8 549.67,192.86C549.52,195.91 550.58,199.09 551.22,200.38" stroke="#899EAC" stroke-width="3.96535" stroke-linecap="round" />
    <path d="M570.89,197.11C567.24,196.92 564.42,193.81 564.61,190.16C564.79,186.5 567.9,183.69 571.55,183.87C575.21,184.05 578.02,187.17 577.84,190.82C577.66,194.48 574.54,197.29 570.89,197.11Z" fill="#D6E4ED" />
    <path d="M176.75,278.65L162.2,282.98C161.41,281.35 160.6,279.74 160.07,278.86C157.94,275.31 159.09,270.7 162.64,268.57C166.19,266.44 170.8,267.59 172.93,271.14C173.88,272.72 175.01,275.01 175.82,276.68C176.18,277.43 176.5,278.11 176.75,278.65Z" fill="#4B4B4B" />
  </g>
</svg>
