<?xml version="1.0" encoding="UTF-8"?>
<svg xmlns="http://www.w3.org/2000/svg" width="123.75" height="123.75" viewBox="0 0 90.0 90.0">
  <g>
    <path d="M5,15a8,8 0,0 1,8 -8h64a8,8 0,0 1,8 8v62a8,8 0,0 1,-8 8H13a8,8 0,0 1,-8 -8z" fill="#8B8987" />
    <path d="M5,13a8,8 0,0 1,8 -8h64a8,8 0,0 1,8 8v60a8,8 0,0 1,-8 8H13a8,8 0,0 1,-8 -8z" fill="#E7E6E5" />
    <path d="M5,55V13a8,8 0,0 1,8 -8h62L16.384,6.293a10,10 0,0 0,-9.77 9.586zM85,52v21a8,8 0,0 1,-8 8H54l11.858,-1.061a20,20 0,0 0,18.114 -17.886z" fill="#F8F8F8" />
    <path d="M41,24.25h8V20.5h4v-3.75h-8V13h-4v3.75h-4v3.75h4zM37,24.25h4v7.5h-4zM17,46.75h4v-7.5h4V43h4v-3.75h-4V35.5H13v3.75h4V43h-4v7.5h4zM37,43h-4v-3.75h-4V35.5h16v11.25h-8z" fill="#000000" />
    <path d="M57,35.5h-4L53,28h-4v11.25h4L53,43h-4v7.5h16v11.25L53,61.75v3.75h-4L49,73h8v-3.75h4L61,65.5h4v3.75h4L69,73h8v-3.75h-4L73,65.5h4v-3.75h-4v3.75h-4L69,58h8L77,39.25h-4v15h-4L69,58 69,43L57,43zM53,46.75L53,43h4v3.75z" fill="#000000" />
    <path d="M61,35.5h4v3.75h-4zM69.001,35.5v3.75h4V35.5zM29,46.75h4v3.75h-4zM49,58h4v-3.75H41V50.5h-4V58h8v3.75h-8V73h8V61.75h4zM57,54.25h4V58h-4zM25,20.5h-4v3.75h4z" fill="#000000" />
    <path d="M13,13h20v18.75L13,31.75zM17,28h12L29,16.75L17,16.75z" fill="#000000" />
    <path d="M69,20.5h-4v3.75h4z" fill="#000000" />
    <path d="M57,31.75V13h20v18.75zM61,28h12V16.75H61z" fill="#000000" />
    <path d="M25,61.75h-4v3.75h4z" fill="#000000" />
    <path d="M33,73L13,73L13,54.25h20zM29,58L17,58v11.25h12z" fill="#000000" />
  </g>
</svg>
